PathFileType	4	(X/Y/Z)	 s10c0102.trc
DataRate	CameraRate	NumFrames	NumMarkers	Units	OrigDataRate	OrigDataStartFrame	OrigNumFrames
200	200	5	50	mm	200	251	2000
Frame#	Time	racr			lacr			c7			jug			rlel			rdr			llel			ldr			s2			lic			ric			lasi			rasi			rpsi			lpsi			rgt			lgt			rth1			rth2			rth3			rth4			rlfc			rmfc			rsh1			rsh2			rsh3			rsh4			rlmal			rmmal			rcal			rtoe			rmt5			lth1			lth2			lth4			lth3			llfc			lmfc			llmal			lmmal			lcal			lmt5			lsh1			lsh2			lsh3			lsh4			ltoe			SBIKE			LBIKE			RBIKE			
		X1	Y1	Z1	X2	Y2	Z2	X3	Y3	Z3	X4	Y4	Z4	X5	Y5	Z5	X6	Y6	Z6	X7	Y7	Z7	X8	Y8	Z8	X9	Y9	Z9	X10	Y10	Z10	X11	Y11	Z11	X12	Y12	Z12	X13	Y13	Z13	X14	Y14	Z14	X15	Y15	Z15	X16	Y16	Z16	X17	Y17	Z17	X18	Y18	Z18	X19	Y19	Z19	X20	Y20	Z20	X21	Y21	Z21	X22	Y22	Z22	X23	Y23	Z23	X24	Y24	Z24	X25	Y25	Z25	X26	Y26	Z26	X27	Y27	Z27	X28	Y28	Z28	X29	Y29	Z29	X30	Y30	Z30	X31	Y31	Z31	X32	Y32	Z32	X33	Y33	Z33	X34	Y34	Z34	X35	Y35	Z35	X36	Y36	Z36	X37	Y37	Z37	X38	Y38	Z38	X39	Y39	Z39	X40	Y40	Z40	X41	Y41	Z41	X42	Y42	Z42	X43	Y43	Z43	X44	Y44	Z44	X45	Y45	Z45	X46	Y46	Z46	X47	Y47	Z47	X48	Y48	Z48	X49	Y49	Z49	X50	Y50	Z50	
251	1.2550	407.130314	1276.905167	-25.642440	417.851956	1301.577814	-328.168142	367.719220	1338.263571	-174.304106	374.131347	1191.084328	-178.941769	478.554394	1027.842729	51.614342	643.935294	877.615491	-2.737514	475.394193	1035.881875	-425.340039	658.113314	901.958940	-371.469501	-140.490920	1099.334991	-192.959983	14.378069	1152.166016	-347.241635	46.460192	1117.501918	-54.065569	45.073880	1061.828330	-328.219842	50.504020	1033.475606	-68.921291	-98.711429	1157.115574	-130.957096	-101.160760	1178.193388	-239.660051	-62.429469	992.731569	-18.154831	-55.785045	1018.503415	-399.742086	20.307777	875.407102	1.637029	89.672346	820.806561	-11.525050	120.490747	741.430065	-17.501924	117.953833	844.532330	-17.219369	178.124157	653.110355	-29.391587	182.076206	643.789561	-145.195050	106.731847	558.356116	-8.488189	102.168972	470.779201	-22.416094	55.477433	398.785857	-33.495835	134.167987	464.149677	-42.484248	22.043962	302.757351	-53.133352	54.986816	310.422109	-129.560825	-23.277599	315.450211	-107.398931	158.233021	154.185431	-90.697789	73.662878	184.287461	-36.216282	66.811661	956.724101	-405.773402	150.205458	952.817838	-383.326086	158.520647	986.328004	-371.100815	224.956285	905.476467	-375.407147	327.935943	862.334281	-346.797157	317.091519	849.863616	-225.633126	156.472975	522.873644	-371.043251	162.056265	524.691136	-284.530731	97.814922	476.600501	-330.888076	277.367181	456.989409	-389.078096	267.173192	759.449537	-381.791345	255.716602	672.510971	-372.243621	201.290925	602.493529	-377.978796	279.143956	664.201461	-342.963494	350.793807	499.500133	-328.454737	-204.714504	833.798467	-224.171916	-78.292564	81.710038	-423.718191	-102.691152	80.460243	-24.425136	
252	1.2600	407.613371	1277.114244	-27.713794	416.378972	1300.526246	-330.037926	367.106734	1337.830813	-176.038479	373.305843	1190.565027	-180.280913	478.949181	1028.341697	50.351086	643.958254	877.586724	-2.747640	474.207051	1034.248880	-425.570775	657.714099	902.071766	-371.559212	-140.917617	1099.415792	-193.220489	13.574729	1152.169215	-347.422559	45.229250	1118.051581	-54.054411	44.367456	1061.747715	-328.386583	49.177493	1034.201890	-68.871437	-99.908630	1157.596412	-131.239126	-102.042268	1178.414788	-240.081388	-63.487480	993.583212	-17.720747	-56.357212	1018.216292	-399.666323	20.633706	876.499696	1.844416	90.297138	822.354989	-11.667269	121.605141	743.326366	-17.707466	118.355932	846.434254	-17.595066	179.021842	655.047379	-29.896356	182.248904	645.701673	-145.831761	106.051837	561.078759	-9.090302	100.554049	473.394587	-22.942119	53.044047	402.132685	-34.213421	132.536047	466.473010	-42.908365	18.599633	305.422088	-53.912023	51.692955	313.112575	-130.186057	-26.886587	317.799407	-108.090341	154.973965	156.801709	-90.845125	70.354557	187.022577	-36.465321	66.353192	955.619359	-405.609267	149.696162	951.225659	-383.122594	158.272079	984.740879	-370.996661	224.109504	903.403881	-374.813817	327.034738	860.247800	-346.341728	315.525396	847.948597	-225.417948	158.494445	518.947338	-370.184919	164.107715	520.932312	-284.360025	100.472817	472.351143	-330.740996	280.252967	454.382222	-388.958442	266.570394	757.261811	-381.276634	256.261546	670.150800	-371.880346	202.765424	599.688202	-378.261407	279.817881	662.001829	-342.771447	353.292222	497.559387	-328.322537	-204.728789	833.791537	-224.177458	-78.286335	81.722585	-423.727583	-102.692838	80.456836	-24.415076	
253	1.2650	408.170432	1277.367603	-29.779962	415.018192	1299.454432	-331.960087	366.562065	1337.408426	-177.812485	372.556398	1189.952378	-181.610024	479.280316	1028.811470	49.163460	643.959901	877.574461	-2.777063	472.961927	1032.542087	-425.891144	657.287704	902.201523	-371.565314	-141.374881	1099.659479	-193.580485	12.828358	1152.111688	-347.698135	43.960376	1118.686154	-54.229428	43.738090	1061.680086	-328.520615	47.848608	1034.956297	-68.779938	-101.137614	1158.375280	-131.668810	-102.846198	1178.608486	-240.466136	-64.578111	994.569009	-17.276057	-56.891712	1017.946526	-399.595859	20.846984	877.798284	2.086694	90.755178	824.050466	-11.857734	122.526464	745.150099	-17.976418	118.640200	848.212643	-18.023436	179.868491	657.101888	-30.346630	182.393391	647.645273	-146.282834	105.182661	563.815417	-9.664996	98.739488	476.324416	-23.521964	50.469016	405.429553	-35.198322	130.781840	468.875893	-43.264257	15.124597	308.165916	-54.670401	48.554265	316.169883	-130.707600	-30.498776	320.423585	-108.722427	151.792635	159.585983	-91.005389	67.114220	189.683106	-36.778633	65.796278	954.492612	-405.422009	149.078821	949.545569	-382.900208	157.889197	983.086304	-370.966808	223.127856	901.211744	-374.238222	325.810437	858.416805	-345.717753	313.728550	846.258903	-224.728789	160.689319	515.367314	-370.220762	166.371934	517.319929	-284.153673	103.254617	468.313504	-330.985617	283.106190	451.727094	-388.852814	265.968340	754.922140	-380.818324	256.700076	667.611982	-371.733510	204.049861	596.531543	-377.911641	280.505005	659.696030	-342.672479	355.754073	495.561132	-328.191856	-204.764648	833.805744	-224.166796	-78.280567	81.737128	-423.713907	-102.699811	80.459623	-24.414841	
254	1.2700	408.793107	1277.545448	-31.874720	413.563758	1298.363370	-333.774906	366.031454	1336.921922	-179.502779	371.803341	1189.401152	-182.907056	479.705624	1029.334344	48.111397	643.963724	877.542168	-2.767389	471.616792	1030.820002	-426.260444	656.864311	902.349189	-371.649680	-141.988857	1100.100605	-194.024932	12.231771	1152.041312	-348.120667	42.340184	1120.061956	-52.956567	43.183753	1061.561653	-328.745002	46.949262	1035.642829	-68.254280	-102.259146	1159.052587	-132.139629	-103.875950	1179.210696	-239.855815	-65.611889	995.517216	-16.955015	-57.423073	1017.640822	-399.505008	21.102032	879.019979	2.248906	91.153033	825.719034	-12.085388	123.469867	746.926737	-18.130505	118.805314	849.979755	-18.554578	180.620424	659.173183	-30.719539	182.478020	649.597540	-146.719863	104.285035	566.673145	-10.267860	96.905733	479.114056	-24.097086	47.834238	408.920249	-35.708917	128.969388	471.275219	-43.552127	11.697205	310.852980	-55.306433	44.977842	319.242905	-131.195875	-34.122639	322.914632	-109.285347	148.709197	162.553071	-91.043360	63.848641	192.585277	-37.015220	65.137578	953.346090	-405.322359	148.415088	947.865220	-382.766922	157.407958	981.383518	-370.996788	222.049936	898.974259	-373.791000	324.533781	856.409819	-345.296422	311.758986	844.407983	-224.484660	162.798871	511.385558	-369.865654	168.474672	513.620516	-283.855281	105.733113	463.755531	-330.482965	285.875515	449.042776	-388.704698	265.211409	752.423408	-380.406427	257.079525	665.026092	-371.574637	205.268214	593.263852	-377.654198	281.117156	657.393575	-342.595704	358.150743	493.505748	-328.093285	-204.783392	833.812825	-224.173717	-78.303835	81.713025	-423.711312	-102.698329	80.451231	-24.411959	
255	1.2750	409.479571	1277.805913	-34.025324	412.152471	1297.331232	-335.621465	365.579702	1336.438004	-181.327196	371.035140	1188.832205	-184.251042	479.998455	1029.804622	47.066633	643.918446	877.528755	-2.812823	470.196424	1029.173309	-426.692077	656.383661	902.384620	-371.746147	-142.885692	1100.773723	-194.538788	11.649211	1151.872847	-348.547631	41.149466	1120.715810	-53.267892	42.637191	1061.403886	-328.945443	45.539215	1036.515512	-68.198376	-103.520666	1159.890690	-132.685315	-104.521254	1179.519483	-240.575754	-66.781659	996.650433	-16.657541	-57.819653	1017.327622	-399.458920	21.176996	880.319615	2.398976	91.490486	827.312303	-12.345952	124.208992	748.736131	-18.392763	118.805414	851.738071	-19.185365	181.264399	661.185398	-31.087462	182.526158	651.529760	-147.054168	103.363509	569.405610	-10.817725	94.996266	482.121687	-24.616703	45.100450	412.314370	-36.710300	127.093922	473.739545	-43.786425	8.438254	313.805736	-55.877122	41.800417	322.461492	-131.494450	-37.698652	325.577789	-109.761726	145.578784	165.518925	-91.115230	60.718927	195.417412	-37.224680	64.355898	952.100104	-405.289330	147.581283	946.125135	-382.715869	156.892336	979.564079	-371.115320	220.816544	896.642629	-373.429413	323.206059	854.289616	-344.911989	309.651055	842.443081	-224.283215	164.996259	507.560285	-369.773964	170.656758	509.972140	-283.497791	108.349253	459.361615	-330.415165	288.629411	446.144846	-388.564542	264.440327	749.907708	-380.082135	257.528083	662.340442	-371.309398	206.467533	590.062315	-377.435515	281.670709	654.892374	-342.704757	360.521178	491.231096	-327.990447	-204.792998	833.813192	-224.160671	-78.298717	81.728651	-423.715132	-102.693434	80.461989	-24.416938	
